<svg width="32" height="25" viewBox="0 0 32 25" fill="none" xmlns="http://www.w3.org/2000/svg">
<path d="M0 1.19538C0 8.59654 0 15.9983 0 23.3995C10.9015 27.5412 21.0985 19.2577 32 23.3995C32 15.9983 32 8.59654 32 1.19538C21.0985 -2.947 10.9015 5.33715 0 1.19538ZM5.8776 22.8307C4.04908 22.7464 3.13475 22.608 1.30623 21.9674C1.30623 20.4 1.30623 19.6163 1.30623 18.0491C3.13475 18.6898 4.04908 18.8282 5.8776 18.9124C5.8776 20.4796 5.8776 21.2633 5.8776 22.8307ZM5.8776 8.46326C4.04908 8.37897 3.13475 8.24053 1.30623 7.59997C1.30623 6.03259 1.30623 5.2489 1.30623 3.68164C3.13475 4.32233 4.04908 4.46077 5.8776 4.54494C5.8776 6.11231 5.8776 6.896 5.8776 8.46326ZM14.3673 21.8106C12.5388 22.2162 11.6245 22.4179 9.79593 22.6478C9.79593 21.0805 9.79593 20.2968 9.79593 18.7295C11.6245 18.4996 12.5388 18.2979 14.3673 17.8923C14.3673 19.4589 14.3673 20.2432 14.3673 21.8106ZM14.3673 7.44328C12.5388 7.84887 11.6245 8.05059 9.79593 8.28052C9.79593 6.71314 9.79593 5.92945 9.79593 4.36219C11.6245 4.13226 12.5388 3.93054 14.3673 3.52495C14.3673 5.09161 14.3673 5.8759 14.3673 7.44328ZM22.2041 20.2335C20.2449 20.4634 19.4612 20.6651 17.6327 21.0707C17.6327 19.5033 17.6327 18.7197 17.6327 17.1524C19.4612 16.7468 20.2449 16.5451 22.2041 16.3152C22.2041 17.8824 22.2041 18.6661 22.2041 20.2335ZM17.6327 6.70269C17.6327 5.13531 17.6327 4.35163 17.6327 2.78437C19.4612 2.37877 20.3755 2.17706 22.2041 1.94713C22.2041 3.51451 22.2041 4.29819 22.2041 5.86545C20.3755 6.09599 19.4612 6.2971 17.6327 6.70269ZM26.1225 1.76414C28.0817 1.84843 28.7347 1.98687 30.6939 2.62744C30.6939 4.19482 30.6939 4.9785 30.6939 6.54576C28.7347 5.90508 28.0817 5.76664 26.1225 5.68247C26.1225 4.11521 26.1225 3.33152 26.1225 1.76414ZM26.1225 16.1316C28.0817 16.2159 28.7347 16.3543 30.6939 16.9949C30.6939 18.5622 30.6939 19.3459 30.6939 20.9132C28.7347 20.2725 28.0817 20.1341 26.1225 20.0499C26.1225 18.4826 26.1225 17.699 26.1225 16.1316Z" fill="white"/>
<path d="M14.0195 14.4831L14.2719 15.4409L10.005 16.5654L9.7526 15.6075L14.0195 14.4831ZM8.97397 10.4633L10.5446 16.4232L8.89287 16.8585L7.32227 10.8986L8.97397 10.4633ZM12.7849 12.0549L13.0309 12.9882L9.32004 13.9661L9.07409 13.0328L12.7849 12.0549ZM12.6958 9.48248L12.9493 10.4444L8.68791 11.5674L8.43441 10.6055L12.6958 9.48248Z" fill="black"/>
<path d="M15.7709 11.3206L16.6889 14.804L15.1033 15.2219L13.9361 10.7929L15.4226 10.4011L15.7709 11.3206ZM15.8331 12.4949L15.4037 12.6081C15.3174 12.2806 15.2966 11.9709 15.3413 11.6789C15.3854 11.3842 15.4857 11.117 15.6423 10.8773C15.7983 10.6348 16.0046 10.4272 16.2613 10.2545C16.521 10.0781 16.827 9.94346 17.1794 9.8506C17.4584 9.77709 17.7214 9.73988 17.9684 9.73898C18.2155 9.73808 18.4389 9.78136 18.6385 9.86882C18.8419 9.95531 19.016 10.0947 19.1609 10.2871C19.3095 10.4785 19.4248 10.7298 19.5068 11.0409L20.2511 13.8653L18.6544 14.286L17.909 11.4575C17.8573 11.261 17.7803 11.1179 17.6781 11.0281C17.5759 10.9383 17.4475 10.8904 17.2929 10.8845C17.1412 10.8748 16.9626 10.8971 16.757 10.9513C16.5441 11.0074 16.367 11.0876 16.2257 11.1919C16.0881 11.2953 15.9827 11.4165 15.9094 11.5555C15.839 11.6908 15.7976 11.8388 15.785 11.9997C15.7725 12.1606 15.7885 12.3257 15.8331 12.4949Z" fill="black"/>
<path d="M24.0611 8.12465L25.498 7.74596L26.6264 12.0276C26.7328 12.4315 26.7019 12.8059 26.5338 13.1508C26.37 13.4975 26.0924 13.7997 25.7011 14.0575C25.3105 14.318 24.8307 14.5233 24.2618 14.6732C24.0122 14.739 23.7414 14.7841 23.4495 14.8085C23.1613 14.8319 22.8769 14.8251 22.5963 14.7882C22.3194 14.7502 22.0757 14.6744 21.8651 14.5606L22.381 13.6805C22.6062 13.7904 22.8514 13.8571 23.1167 13.8806C23.3827 13.9068 23.6625 13.8812 23.9561 13.8038C24.2424 13.7284 24.4742 13.625 24.6516 13.4936C24.8297 13.3649 24.9521 13.2115 25.019 13.0334C25.0866 12.858 25.0928 12.6652 25.0374 12.4551L24.1766 9.18861L24.0611 8.12465ZM20.6505 11.4486L20.6279 11.3627C20.5387 11.0243 20.5129 10.7028 20.5503 10.3981C20.5908 10.0898 20.6875 9.80894 20.8406 9.55556C20.9973 9.30122 21.2099 9.0803 21.4784 8.89279C21.747 8.70529 22.0684 8.5622 22.4428 8.46354C22.8392 8.35908 23.1858 8.32612 23.4825 8.36466C23.7792 8.40321 24.0404 8.50072 24.2662 8.6572C24.4912 8.81094 24.6873 9.01169 24.8547 9.25943C25.025 9.50347 25.1801 9.77925 25.32 10.0867L25.3696 10.275C25.3958 10.5979 25.3888 10.9062 25.3484 11.1999C25.3081 11.4937 25.2242 11.7638 25.0968 12.0104C24.9688 12.2543 24.7851 12.4661 24.546 12.6459C24.3105 12.8247 24.0092 12.9625 23.6421 13.0592C23.2751 13.1559 22.9282 13.1875 22.6014 13.154C22.2783 13.1195 21.9855 13.0288 21.7231 12.882C21.4606 12.7352 21.2366 12.5403 21.0509 12.2974C20.8688 12.0536 20.7354 11.7706 20.6505 11.4486ZM22.2135 10.9448L22.2362 11.0308C22.2843 11.2136 22.3531 11.3779 22.4426 11.5236C22.532 11.6693 22.6424 11.7905 22.7739 11.8871C22.9083 11.9801 23.0598 12.0409 23.2282 12.0695C23.3997 12.0943 23.59 12.0792 23.7992 12.0241C24.0891 11.9477 24.314 11.8402 24.4738 11.7018C24.6329 11.5607 24.7371 11.3975 24.7864 11.2123C24.8358 11.0271 24.8401 10.8276 24.7994 10.6136L24.6581 10.0773C24.6054 9.90734 24.5336 9.76138 24.4426 9.63945C24.3508 9.51478 24.2425 9.41639 24.1175 9.34426C23.9925 9.27214 23.8439 9.22958 23.6717 9.2166C23.4995 9.20361 23.3051 9.22565 23.0885 9.28272C22.8793 9.33786 22.707 9.42121 22.5715 9.53279C22.439 9.64067 22.3372 9.76819 22.2661 9.91534C22.1986 10.0615 22.1608 10.2233 22.1525 10.4005C22.1436 10.5751 22.1639 10.7565 22.2135 10.9448Z" fill="black"/>
</svg>
