<svg width="32" height="25" viewBox="0 0 32 25" fill="none" xmlns="http://www.w3.org/2000/svg">
<path d="M0 1.19586C0 8.59703 0 15.9988 0 23.4C10.9015 27.5417 21.0985 19.2582 32 23.4C32 15.9988 32 8.59703 32 1.19586C21.0985 -2.94651 10.9015 5.33764 0 1.19586ZM5.8776 22.8312C4.04908 22.7469 3.13475 22.6085 1.30623 21.9679C1.30623 20.4005 1.30623 19.6168 1.30623 18.0496C3.13475 18.6903 4.04908 18.8287 5.8776 18.9129C5.8776 20.4801 5.8776 21.2638 5.8776 22.8312ZM5.8776 8.46375C4.04908 8.37946 3.13475 8.24102 1.30623 7.60046C1.30623 6.03308 1.30623 5.24939 1.30623 3.68213C3.13475 4.32282 4.04908 4.46126 5.8776 4.54542C5.8776 6.1128 5.8776 6.89649 5.8776 8.46375ZM14.3673 21.8111C12.5388 22.2167 11.6245 22.4184 9.79593 22.6483C9.79593 21.0809 9.79593 20.2973 9.79593 18.73C11.6245 18.5001 12.5388 18.2983 14.3673 17.8928C14.3673 19.4594 14.3673 20.2437 14.3673 21.8111ZM14.3673 7.44377C12.5388 7.84936 11.6245 8.05107 9.79593 8.28101C9.79593 6.71363 9.79593 5.92994 9.79593 4.36268C11.6245 4.13275 12.5388 3.93103 14.3673 3.52544C14.3673 5.0921 14.3673 5.87639 14.3673 7.44377ZM22.2041 20.234C20.2449 20.4639 19.4612 20.6656 17.6327 21.0712C17.6327 19.5038 17.6327 18.7201 17.6327 17.1529C19.4612 16.7473 20.2449 16.5456 22.2041 16.3157C22.2041 17.8829 22.2041 18.6666 22.2041 20.234ZM17.6327 6.70318C17.6327 5.1358 17.6327 4.35211 17.6327 2.78485C19.4612 2.37926 20.3755 2.17755 22.2041 1.94761C22.2041 3.51499 22.2041 4.29868 22.2041 5.86594C20.3755 6.09647 19.4612 6.29759 17.6327 6.70318ZM26.1225 1.76463C28.0817 1.84892 28.7347 1.98736 30.6939 2.62792C30.6939 4.1953 30.6939 4.97899 30.6939 6.54625C28.7347 5.90556 28.0817 5.76712 26.1225 5.68296C26.1225 4.1157 26.1225 3.33201 26.1225 1.76463ZM26.1225 16.1321C28.0817 16.2164 28.7347 16.3548 30.6939 16.9954C30.6939 18.5627 30.6939 19.3464 30.6939 20.9137C28.7347 20.273 28.0817 20.1346 26.1225 20.0504C26.1225 18.4831 26.1225 17.6994 26.1225 16.1321Z" fill="white"/>
<path d="M11.002 13.2064L12.6078 12.9421C12.6401 13.3393 12.5523 13.7111 12.3446 14.0574C12.1404 14.4032 11.8232 14.6991 11.393 14.9451C10.9664 15.1906 10.4326 15.3661 9.79175 15.4716C9.2905 15.5541 8.83064 15.5641 8.41216 15.5015C7.99323 15.4363 7.62238 15.3057 7.29961 15.1096C6.98041 14.913 6.71911 14.6548 6.5157 14.3351C6.3123 14.0153 6.1755 13.6422 6.10529 13.2156L6.03881 12.8117C5.96859 12.3852 5.98037 11.9876 6.07414 11.6189C6.17105 11.247 6.34096 10.9165 6.58388 10.6273C6.83037 10.3376 7.14158 10.0947 7.51749 9.89866C7.89341 9.70261 8.32662 9.56422 8.81713 9.48348C9.46875 9.37622 10.0328 9.37374 10.5093 9.47602C10.9894 9.57772 11.3784 9.76285 11.6764 10.0314C11.9779 10.2994 12.1862 10.6266 12.3013 11.0129L10.6901 11.2781C10.6336 11.0464 10.5382 10.8581 10.4041 10.7132C10.2694 10.5656 10.0861 10.4684 9.85413 10.4217C9.62527 10.3718 9.33182 10.3763 8.97379 10.4352C8.70526 10.4794 8.47689 10.5553 8.28868 10.663C8.10047 10.7706 7.95084 10.9116 7.8398 11.086C7.72876 11.2603 7.65831 11.4691 7.62846 11.7122C7.60176 11.9521 7.61385 12.2267 7.66476 12.5359L7.73255 12.9478C7.78214 13.249 7.85623 13.5093 7.95484 13.7285C8.053 13.9451 8.17769 14.1217 8.32889 14.2584C8.48323 14.3918 8.66724 14.482 8.8809 14.529C9.09771 14.5727 9.34932 14.571 9.63575 14.5238C9.9723 14.4684 10.2432 14.3828 10.4484 14.2668C10.6537 14.1509 10.8006 14.0049 10.8893 13.8287C10.9816 13.652 11.0191 13.4446 11.002 13.2064Z" fill="black"/>
<path d="M14.8585 10.9657L15.7076 16.1243L14.1609 16.3789L13.1748 10.3885L14.6088 10.1525L14.8585 10.9657ZM18.7485 11.6438L18.7624 11.7278C18.8142 12.0424 18.8121 12.3425 18.7561 12.6283C18.7038 12.9135 18.5992 13.1716 18.4424 13.4028C18.2851 13.6313 18.0742 13.8249 17.8098 13.9834C17.5485 14.1387 17.2353 14.2463 16.8701 14.3065C16.5156 14.3648 16.199 14.3622 15.92 14.2985C15.6411 14.2349 15.3964 14.1219 15.1857 13.9594C14.9783 13.7937 14.7998 13.5917 14.6502 13.3534C14.5007 13.1152 14.3731 12.8541 14.2676 12.5703L14.2314 12.3504C14.2369 12.0264 14.2719 11.7249 14.3363 11.446C14.4002 11.1644 14.5041 10.9131 14.648 10.6923C14.795 10.4682 14.9886 10.2817 15.2288 10.1326C15.4726 9.98295 15.77 9.87924 16.1208 9.82149C16.4896 9.76078 16.8222 9.75943 17.1186 9.81744C17.4185 9.87485 17.6794 9.98525 17.9012 10.1486C18.1266 10.3114 18.3097 10.5195 18.4507 10.7728C18.5953 11.0256 18.6946 11.3159 18.7485 11.6438ZM17.2103 11.9833L17.1965 11.8993C17.1662 11.7153 17.1168 11.5496 17.0484 11.402C16.9832 11.2512 16.8961 11.1246 16.7873 11.022C16.6821 10.9188 16.5526 10.847 16.3988 10.8066C16.2482 10.763 16.0727 10.7576 15.8722 10.7906C15.6609 10.8254 15.4843 10.8805 15.3422 10.9559C15.2038 11.0307 15.0959 11.1238 15.0186 11.2351C14.9413 11.3464 14.8904 11.4725 14.8658 11.6135C14.8412 11.7544 14.8373 11.9098 14.8542 12.0795L14.9457 12.6353C14.9961 12.8296 15.0754 12.9987 15.1836 13.1424C15.2914 13.2835 15.4387 13.3852 15.6255 13.4475C15.8123 13.5099 16.0453 13.5181 16.3246 13.4721C16.5287 13.4385 16.695 13.3769 16.8237 13.2873C16.9519 13.195 17.0491 13.0818 17.1153 12.9477C17.1851 12.813 17.2249 12.664 17.2348 12.5009C17.2483 12.3371 17.2401 12.1646 17.2103 11.9833Z" fill="black"/>
<path d="M22.609 6.88062L23.8603 6.67465C23.8959 6.89059 23.8906 7.08176 23.8444 7.24817C23.7978 7.41192 23.7048 7.56141 23.5652 7.69664C23.4252 7.82921 23.2289 7.95462 22.9763 8.07287C22.7236 8.19113 22.4065 8.30904 22.025 8.42659C21.7318 8.52142 21.4827 8.63908 21.2778 8.77959C21.0765 8.91951 20.9192 9.0919 20.8058 9.29676C20.6956 9.49836 20.6326 9.74146 20.617 10.0261C20.6009 10.308 20.6334 10.6395 20.7144 11.0204L20.746 11.2123L19.5634 11.5343L19.5319 11.3424C19.4494 10.8193 19.4373 10.3544 19.4954 9.94783C19.5571 9.54064 19.6807 9.18623 19.8664 8.88458C20.0517 8.58028 20.2925 8.32296 20.5888 8.11263C20.8847 7.89963 21.2243 7.72873 21.6077 7.59992C21.8656 7.51366 22.07 7.43756 22.221 7.37165C22.3751 7.30247 22.4827 7.23 22.5437 7.15423C22.6048 7.07846 22.6266 6.98726 22.609 6.88062ZM22.2858 9.1394C22.6796 9.07458 23.0371 9.06777 23.3581 9.11898C23.6786 9.16752 23.9577 9.26535 24.1952 9.41245C24.4327 9.55955 24.6253 9.74689 24.7731 9.97448C24.9209 10.2021 25.0187 10.4611 25.0665 10.7517L25.0803 10.8357C25.129 11.1316 25.1134 11.4162 25.0333 11.6895C24.9564 11.9596 24.817 12.2071 24.615 12.432C24.4129 12.6569 24.1504 12.8493 23.8274 13.0093C23.504 13.1666 23.1238 13.2812 22.687 13.3531C22.2466 13.4256 21.8456 13.4354 21.4839 13.3827C21.1253 13.3267 20.8114 13.2182 20.5422 13.0572C20.2762 12.8929 20.0601 12.6861 19.894 12.4369C19.7311 12.1844 19.6233 11.8982 19.5707 11.5783L19.5562 11.4903C19.5487 11.445 19.5684 11.3966 19.615 11.3451C19.6649 11.2904 19.7228 11.2288 19.7887 11.1605C19.8583 11.0915 19.9165 11.0094 19.9633 10.914C20.1294 10.5828 20.3231 10.2962 20.5444 10.0544C20.7653 9.80999 21.0177 9.61236 21.3018 9.46155C21.589 9.30749 21.917 9.2001 22.2858 9.1394ZM22.1385 10.0878C21.8485 10.1355 21.6243 10.2258 21.466 10.3586C21.3073 10.4888 21.2025 10.6457 21.1518 10.8293C21.1043 11.0096 21.097 11.1998 21.1299 11.3997L21.1437 11.4837C21.1705 11.6463 21.217 11.7947 21.2832 11.9289C21.349 12.0605 21.4374 12.1733 21.5485 12.2672C21.6591 12.3586 21.7965 12.4222 21.9605 12.4582C22.1241 12.4915 22.3169 12.4899 22.5389 12.4533C22.7537 12.418 22.9315 12.3586 23.0722 12.2752C23.2161 12.1885 23.3258 12.0842 23.4013 11.9623C23.4764 11.8376 23.5241 11.7025 23.5442 11.5568C23.5639 11.4084 23.5604 11.2529 23.5336 11.0903L23.5198 11.0063C23.4948 10.8544 23.4498 10.7153 23.3849 10.5891C23.3196 10.4602 23.232 10.3527 23.1222 10.2667C23.012 10.1781 22.8751 10.1171 22.7115 10.0838C22.5479 10.0505 22.3569 10.0518 22.1385 10.0878Z" fill="black"/>
</svg>
